<svg width="45" height="45" viewBox="0 0 45 45" fill="none" xmlns="http://www.w3.org/2000/svg">
<path d="M24.4586 44.2334H20.3924C18.5248 44.2334 17.0039 42.714 17.0039 40.8449V31.3571C17.0039 30.9843 16.7001 30.6794 16.3262 30.6794C14.4586 30.6794 12.9377 29.16 12.9377 27.2909V17.1284C12.9377 14.8854 14.7635 13.0595 17.0066 13.0595H27.8444C30.0875 13.0595 31.9133 14.8854 31.9133 17.1284V27.2909C31.9133 29.16 30.394 30.6794 28.5248 30.6794C28.1521 30.6794 27.8471 30.9843 27.8471 31.3571V40.8449C27.8471 42.714 26.3278 44.2334 24.4586 44.2334ZM17.0066 15.7699C16.2584 15.7699 15.6485 16.3799 15.6485 17.128V27.2905C15.6485 27.6632 15.9522 27.9682 16.3262 27.9682C18.1938 27.9682 19.7147 29.4875 19.7147 31.3567V40.8445C19.7147 41.2172 20.0185 41.5222 20.3924 41.5222H24.4586C24.8314 41.5222 25.1363 41.2172 25.1363 40.8445V31.3567C25.1363 29.4875 26.6557 27.9682 28.5248 27.9682C28.8976 27.9682 29.2025 27.6632 29.2025 27.2905V17.128C29.2025 16.3798 28.5938 15.7699 27.8444 15.7699H17.0066Z" fill="#B2B09D"/>
<path d="M22.4255 11.7037C19.4355 11.7037 17.0039 9.27211 17.0039 6.28209C17.0039 3.29207 19.4355 0.860474 22.4255 0.860474C25.4155 0.860474 27.8471 3.29207 27.8471 6.28209C27.8471 9.27211 25.4155 11.7037 22.4255 11.7037ZM22.4255 3.57128C20.9306 3.57128 19.7147 4.78719 19.7147 6.28209C19.7147 7.77698 20.9306 8.99289 22.4255 8.99289C23.9204 8.99289 25.1363 7.77698 25.1363 6.28209C25.1363 4.78719 23.9204 3.57128 22.4255 3.57128Z" fill="#B2B09D"/>
<path d="M36.6572 44.2334H31.9133C31.1639 44.2334 30.5579 43.6274 30.5579 42.878C30.5579 42.1286 31.1639 41.5226 31.9133 41.5226H36.6572C37.03 41.5226 37.3349 41.2176 37.3349 40.8449V32.7125C37.3349 30.8433 38.8543 29.324 40.7235 29.324C41.0962 29.324 41.4012 29.019 41.4012 28.6463V18.4838C41.4012 17.7356 40.7924 17.1257 40.043 17.1257H35.9795C35.2301 17.1257 34.6241 16.5185 34.6241 15.7703C34.6241 15.0221 35.2301 14.4149 35.9795 14.4149H40.043C42.2861 14.4149 44.112 16.2408 44.112 18.4838V28.6463C44.112 30.5154 42.5926 32.0348 40.7235 32.0348C40.3507 32.0348 40.0457 32.3397 40.0457 32.7125V40.8449C40.0457 42.714 38.5264 44.2334 36.6572 44.2334Z" fill="#B2B09D"/>
<path d="M12.9376 44.2334H8.19373C6.32614 44.2334 4.80523 42.714 4.80523 40.8449V32.7125C4.80523 32.3397 4.50147 32.0348 4.12752 32.0348C2.25993 32.0348 0.739014 30.5154 0.739014 28.6463V18.4838C0.739014 16.2408 2.56486 14.4149 4.80794 14.4149H8.87144C9.61963 14.4149 10.2268 15.0221 10.2268 15.7703C10.2268 16.5185 9.61963 17.1257 8.87144 17.1257H4.80794C4.05974 17.1257 3.44982 17.7357 3.44982 18.4838V28.6463C3.44982 29.019 3.75358 29.324 4.12752 29.324C5.99511 29.324 7.51603 30.8433 7.51603 32.7125V40.8449C7.51603 41.2176 7.81979 41.5226 8.19373 41.5226H12.9376C13.6858 41.5226 14.2931 42.1286 14.2931 42.878C14.2931 43.6274 13.6858 44.2334 12.9376 44.2334Z" fill="#B2B09D"/>
<path d="M35.9795 13.0591C32.9895 13.0591 30.5579 10.6275 30.5579 7.6375C30.5579 4.64748 32.9895 2.21588 35.9795 2.21588C38.9696 2.21588 41.4012 4.64748 41.4012 7.6375C41.4012 10.6275 38.9696 13.0591 35.9795 13.0591ZM35.9795 4.92669C34.4846 4.92669 33.2687 6.1426 33.2687 7.6375C33.2687 9.13239 34.4846 10.3483 35.9795 10.3483C37.4744 10.3483 38.6903 9.13239 38.6903 7.6375C38.6903 6.1426 37.4744 4.92669 35.9795 4.92669Z" fill="#B2B09D"/>
<path d="M8.8715 13.0591C5.88148 13.0591 3.44989 10.6275 3.44989 7.6375C3.44989 4.64748 5.88148 2.21588 8.8715 2.21588C11.8615 2.21588 14.2931 4.64748 14.2931 7.6375C14.2931 10.6275 11.8615 13.0591 8.8715 13.0591ZM8.8715 4.92669C7.37661 4.92669 6.1607 6.1426 6.1607 7.6375C6.1607 9.13239 7.37661 10.3483 8.8715 10.3483C10.3664 10.3483 11.5823 9.13239 11.5823 7.6375C11.5823 6.1426 10.3664 4.92669 8.8715 4.92669Z" fill="#B2B09D"/>
</svg>
